<?xml version="1.0" encoding="utf-8"?>
<!-- Generator: Adobe Illustrator 24.1.3, SVG Export Plug-In . SVG Version: 6.00 Build 0)  -->
<svg version="1.1" id="Layer_1" xmlns="http://www.w3.org/2000/svg" xmlns:xlink="http://www.w3.org/1999/xlink" x="0px" y="0px"
	 viewBox="0 0 500 500" style="enable-background:new 0 0 500 500;" xml:space="preserve">
<style type="text/css">
	.st0{fill:#FCEE21;}
	.st1{fill:#A67C52;}
</style>
<g>
	<path class="st0" d="M55.8,217.8H21.4v61.5h38.3v18.5H10V127.2h47.8v18.5H21.4v53.9h34.4V217.8z"/>
	<path class="st0" d="M80.1,175.3l9.1,26.3c2.4,6.8,4.3,13.2,6.4,20H96c2.1-7.3,4.2-13.7,6.3-20.2l8.9-26.1h12.5L102,234.5
		l22.3,63.2h-13.1l-9.3-27.6c-2.5-7.1-4.6-13.9-6.8-21.3h-0.3c-2.1,7.3-4.3,13.9-6.7,21.3l-9.2,27.6H66.2l22.6-62.5l-21.5-60H80.1z"
		/>
	<path class="st0" d="M136,215.3c0-15.7-0.3-28.3-0.5-40h10.4l0.5,21h0.3c4.7-14.9,12.2-23.8,22.6-23.8c15.4,0,26.9,25,26.9,62.2
		c0,44-13.9,65.8-28.9,65.8c-8.4,0-15.8-7.1-19.6-19.2h-0.3v66.5H136V215.3z M147.4,247.9c0,3.3,0.3,6.3,0.5,9.1
		c2.1,15.4,9.1,26.1,17.3,26.1c12.2,0,19.3-19.2,19.3-47.3c0-24.5-6.7-45.5-18.9-45.5c-7.9,0-15.2,10.9-17.5,27.6
		c-0.4,2.8-0.8,6.1-0.8,9.1V247.9z"/>
	<path class="st0" d="M211.2,213.5c0-14.4-0.1-26.8-0.5-38.2h10.1l0.4,24h0.5c2.9-16.4,9.8-26.8,17.6-26.8c1.3,0,2.2,0.3,3.3,0.8v21
		c-1.2-0.5-2.4-0.8-3.9-0.8c-8.1,0-13.9,11.9-15.5,28.6c-0.3,3-0.5,6.6-0.5,10.4v65.3h-11.4V213.5z"/>
	<path class="st0" d="M259.8,240.6c0.3,30.1,10.2,42.5,21.8,42.5c8.3,0,13.3-2.8,17.6-6.3l2,15.9c-4.1,3.5-11,7.6-21.1,7.6
		c-19.6,0-31.2-24.8-31.2-61.7s11.3-66,29.8-66c20.7,0,26.3,35.2,26.3,57.7c0,4.6-0.3,8.1-0.4,10.4H259.8z M293.6,224.6
		c0.1-14.2-3-36.2-16-36.2c-11.7,0-16.8,20.7-17.7,36.2H293.6z"/>
	<path class="st0" d="M318.1,275c3.4,4.3,9.5,8.9,15.2,8.9c8.4,0,12.3-8.1,12.3-18.2c0-10.6-3.3-16.4-11.8-22.5
		c-11.4-7.8-16.8-20-16.8-34.7c0-19.7,8.3-35.9,21.9-35.9c6.4,0,12.1,3.5,15.6,7.6l-2.9,16.2c-2.5-3-7.1-7.1-13-7.1
		c-6.8,0-10.6,7.6-10.6,16.7c0,10.1,3.8,14.7,12.1,20.7c11,8.1,16.7,18.7,16.7,36.9c0,21.5-8.7,36.7-23.8,36.7
		c-7,0-13.4-3.3-17.9-8.3L318.1,275z"/>
	<path class="st0" d="M370.6,275c3.4,4.3,9.5,8.9,15.2,8.9c8.4,0,12.3-8.1,12.3-18.2c0-10.6-3.3-16.4-11.8-22.5
		c-11.4-7.8-16.8-20-16.8-34.7c0-19.7,8.3-35.9,21.9-35.9c6.4,0,12.1,3.5,15.6,7.6l-2.9,16.2c-2.5-3-7.1-7.1-13-7.1
		c-6.8,0-10.6,7.6-10.6,16.7c0,10.1,3.8,14.7,12.1,20.7c11,8.1,16.7,18.7,16.7,36.9c0,21.5-8.7,36.7-23.8,36.7
		c-7,0-13.4-3.3-17.9-8.3L370.6,275z"/>
	<path class="st1" d="M409.2,333.2c5.3-0.8,9.8-3.5,12.6-9.4c3.2-7.1,4.3-16.7,4.3-46V175.3h11.6v111.1c0,23.8-2,39.2-7.6,50.3
		c-5.1,9.9-13.5,13.9-19.7,13.9L409.2,333.2z M439,140.9c0.1,7.3-2.6,13.7-7.2,13.7c-4.3,0-7.1-6.3-7.1-13.7c0-7.8,3-13.9,7.4-13.9
		C436.2,127,439,133.1,439,140.9z"/>
	<path class="st1" d="M455.5,275c3.4,4.3,9.5,8.9,15.2,8.9c8.4,0,12.3-8.1,12.3-18.2c0-10.6-3.3-16.4-11.8-22.5
		c-11.4-7.8-16.8-20-16.8-34.7c0-19.7,8.3-35.9,21.9-35.9c6.4,0,12.1,3.5,15.6,7.6l-2.9,16.2c-2.5-3-7.1-7.1-13-7.1
		c-6.8,0-10.6,7.6-10.6,16.7c0,10.1,3.8,14.7,12.1,20.7c11,8.1,16.7,18.7,16.7,36.9c0,21.5-8.7,36.7-23.8,36.7
		c-7,0-13.4-3.3-17.9-8.3L455.5,275z"/>
</g>
<g>
</g>
<g>
</g>
<g>
</g>
<g>
</g>
<g>
</g>
<g>
</g>
<g>
</g>
<g>
</g>
<g>
</g>
<g>
</g>
<g>
</g>
<g>
</g>
<g>
</g>
<g>
</g>
<g>
</g>
</svg>
